# xmcd CD database file
# Copyright (C) 1997 Ti Kan
# 
# Track frame offsets:
#     183
#     13383
#     23360
#     34148
#     46365
#     58123
#     72175
#     89840
#     104918
#     118135
#     128405
#     145750
#     158410
#     170768
#     179728
#     193220
# 
# Disc length: 2737 seconds
# 
# Revision: 1
# Processed by: cddbd v1.4b41PL1 Copyright (c) Steve Scherf et al.
# Submitted via: DiscPlay 4.0.4
# 
DISCID=eb0aaf10
DTITLE=Lynn Anderson - Rosegarden
DYEAR=1900
DGENRE=
TTITLE0=Rosegarden
TTITLE1=What a man my man is
TTITLE2=Silver threads and golden needles
TTITLE3=Top of the world
TTITLE4=You're my man
TTITLE5=Cry
TTITLE6=Close to you
TTITLE7=We've only just begun
TTITLE8=How can I unlove You
TTITLE9=Fool me
TTITLE10=Midnight train to Georgia
TTITLE11=It must be love
TTITLE12=Listen to a country song
TTITLE13=Ride, ride, ride
TTITLE14=Keep me in mind
TTITLE15=You don't have to say you love me
EXTD=
EXTT0=
EXTT1=
EXTT2=
EXTT3=
EXTT4=
EXTT5=
EXTT6=
EXTT7=
EXTT8=
EXTT9=
EXTT10=
EXTT11=
EXTT12=
EXTT13=
EXTT14=
EXTT15=
PLAYORDER=
